{
  "asset": {
    "generator": "Khronos glTF Blender I/O v1.6.16",
    "version": "2.0"
  },
  "scene": 0,
  "scenes": [
    {
      "name": "Scene",
      "nodes": [
        0
      ]
    }
  ],
  "nodes": [
    {
      "mesh": 0,
      "name": "Sphere",
      "rotation": [
        0.7071068286895752,
        0,
        0,
        0.7071067094802856
      ]
    }
  ],
  "materials": [
    {
      "doubleSided": true,
      "name": "Displacer",
      "pbrMetallicRoughness": {
        "baseColorFactor": [
          0.800000011920929,
          0.800000011920929,
          0.800000011920929,
          1
        ],
        "metallicFactor": 0,
        "roughnessFactor": 0.5
      }
    }
  ],
  "meshes": [
    {
      "name": "Sphere",
      "primitives": [
        {
          "attributes": {
            "POSITION": 0,
            "NORMAL": 1,
            "TEXCOORD_0": 2
          },
          "indices": 3,
          "material": 0
        }
      ]
    }
  ],
  "accessors": [
    {
      "bufferView": 0,
      "componentType": 5126,
      "count": 754614,
      "max": [
        209.82870483398438,
        209.7366180419922,
        209.9995880126953
      ],
      "min": [
        -209.97259521484375,
        -209.65667724609375,
        -209.98292541503906
      ],
      "type": "VEC3"
    },
    {
      "bufferView": 1,
      "componentType": 5126,
      "count": 754614,
      "type": "VEC3"
    },
    {
      "bufferView": 2,
      "componentType": 5126,
      "count": 754614,
      "type": "VEC2"
    },
    {
      "bufferView": 3,
      "componentType": 5125,
      "count": 4305600,
      "type": "SCALAR"
    }
  ],
  "bufferViews": [
    {
      "buffer": 0,
      "byteLength": 9055368,
      "byteOffset": 0
    },
    {
      "buffer": 0,
      "byteLength": 9055368,
      "byteOffset": 9055368
    },
    {
      "buffer": 0,
      "byteLength": 6036912,
      "byteOffset": 18110736
    },
    {
      "buffer": 0,
      "byteLength": 17222400,
      "byteOffset": 24147648
    }
  ],
  "buffers": [
    {
      "uri": "old-sphere_data.bin",
      "byteLength": 41370048
    }
  ]
}