{
  "asset": {
    "generator": "gltfeditor.com",
    "version": "2.0"
  },
  "buffers": [
    {
      "uri": "sphere-no-animation_data.bin",
      "byteLength": 2389936
    }
  ],
  "bufferViews": [
    {
      "buffer": 0,
      "byteOffset": 0,
      "byteLength": 484788,
      "byteStride": 12,
      "target": 34962
    },
    {
      "buffer": 0,
      "byteOffset": 484788,
      "byteLength": 484788,
      "byteStride": 12,
      "target": 34962
    },
    {
      "buffer": 0,
      "byteOffset": 969576,
      "byteLength": 323192,
      "byteStride": 8,
      "target": 34962
    },
    {
      "buffer": 0,
      "byteOffset": 1292768,
      "byteLength": 955200,
      "target": 34963
    },
    {
      "buffer": 0,
      "byteOffset": 2247968,
      "byteLength": 31188,
      "byteStride": 12,
      "target": 34962
    },
    {
      "buffer": 0,
      "byteOffset": 2279156,
      "byteLength": 31188,
      "byteStride": 12,
      "target": 34962
    },
    {
      "buffer": 0,
      "byteOffset": 2310344,
      "byteLength": 20792,
      "byteStride": 8,
      "target": 34962
    },
    {
      "buffer": 0,
      "byteOffset": 2331136,
      "byteLength": 58800,
      "target": 34963
    }
  ],
  "accessors": [
    {
      "bufferView": 0,
      "byteOffset": 0,
      "componentType": 5126,
      "count": 40399,
      "min": [
        -1.9999914169311523,
        -2,
        -2
      ],
      "max": [
        2.0000085830688477,
        2,
        2
      ],
      "type": "VEC3"
    },
    {
      "bufferView": 1,
      "byteOffset": 0,
      "componentType": 5126,
      "count": 40399,
      "min": [
        -1,
        -1,
        -1
      ],
      "max": [
        1,
        1,
        1
      ],
      "type": "VEC3"
    },
    {
      "bufferView": 2,
      "byteOffset": 0,
      "componentType": 5126,
      "count": 40399,
      "min": [
        0,
        0
      ],
      "max": [
        1.0000009536743164,
        1.0000009536743164
      ],
      "type": "VEC2"
    },
    {
      "bufferView": 3,
      "byteOffset": 0,
      "componentType": 5125,
      "normalized": false,
      "count": 238800,
      "min": [
        0
      ],
      "max": [
        40398
      ],
      "type": "SCALAR"
    },
    {
      "bufferView": 4,
      "byteOffset": 0,
      "componentType": 5126,
      "count": 2599,
      "min": [
        -2.006035089492798,
        -2.009999990463257,
        -2.0100018978118896
      ],
      "max": [
        2.006115674972534,
        2.010002851486206,
        2.0100009441375732
      ],
      "type": "VEC3"
    },
    {
      "bufferView": 5,
      "byteOffset": 0,
      "componentType": 5126,
      "count": 2599,
      "min": [
        -0.9980606436729431,
        -1,
        -1
      ],
      "max": [
        0.9980606436729431,
        1,
        1
      ],
      "type": "VEC3"
    },
    {
      "bufferView": 6,
      "byteOffset": 0,
      "componentType": 5126,
      "count": 2599,
      "min": [
        0,
        0
      ],
      "max": [
        1.000000238418579,
        1.000000238418579
      ],
      "type": "VEC2"
    },
    {
      "bufferView": 7,
      "byteOffset": 0,
      "componentType": 5125,
      "normalized": false,
      "count": 14700,
      "min": [
        0
      ],
      "max": [
        2598
      ],
      "type": "SCALAR"
    }
  ],
  "scene": 0,
  "scenes": [
    {
      "nodes": [
        0,
        1,
        2,
        3,
        4,
        5
      ],
      "name": "Scene"
    }
  ],
  "nodes": [
    {
      "name": "Sphere",
      "matrix": [
        0.9963023066520691,
        0.02909095026552677,
        0.08084231615066528,
        0,
        -0.08498847484588623,
        0.47166872024536133,
        0.8776705265045166,
        0,
        -0.012598522938787937,
        -0.8812958598136902,
        0.4723970293998718,
        0,
        0,
        0,
        0,
        1
      ],
      "mesh": 0
    },
    {
      "name": "Sphere.001",
      "matrix": [
        0.9642720818519592,
        0,
        0,
        0,
        0,
        0.9642720818519592,
        0,
        0,
        0,
        0,
        0.9642720818519592,
        0,
        0,
        0,
        0,
        1
      ],
      "mesh": 1
    },
    {
      "name": "Area",
      "matrix": [
        -3.4862112998962402,
        9.973920822143555,
        -5.382384777069092,
        0,
        5.422173023223877,
        6.412779808044434,
        8.37132740020752,
        0,
        -9.952345848083496,
        -2.7978707350939658e-8,
        6.446211338043213,
        0,
        5.793433666229248,
        6.448790550231934,
        8.960845947265625,
        1
      ]
    },
    {
      "name": "Area.001",
      "matrix": [
        3.1845645904541016,
        -10.117471694946289,
        -5.3007683753967285,
        0,
        5.6926493644714355,
        6.176676273345947,
        -8.369302749633789,
        0,
        -9.902277946472168,
        0.29709428548812866,
        -6.5160908699035645,
        0,
        3.4880716800689697,
        6.267374515533447,
        -6.024033546447754,
        1
      ]
    },
    {
      "name": "Area.002",
      "matrix": [
        -0.17487183213233948,
        -0.06838408857584,
        11.856119155883789,
        0,
        8.45468807220459,
        -8.313553810119629,
        0.07675109803676605,
        0,
        -8.312067985534668,
        -8.454760551452637,
        -0.17136456072330475,
        0,
        7.068351745605469,
        -7.784980773925781,
        1.37135910987854,
        1
      ]
    },
    {
      "name": "Area.003",
      "matrix": [
        -0.12408670783042908,
        -0.14091868698596954,
        11.856120109558105,
        0,
        11.32455062866211,
        -3.5144686698913574,
        0.07675166428089142,
        0,
        -3.5131163597106934,
        -11.323933601379395,
        -0.17136140167713165,
        0,
        11.710805892944336,
        -3.1642322540283203,
        -0.4114026725292206,
        1
      ]
    }
  ],
  "meshes": [
    {
      "primitives": [
        {
          "material": 0,
          "mode": 4,
          "attributes": {
            "POSITION": 0,
            "NORMAL": 1,
            "TEXCOORD_0": 2
          },
          "indices": 3
        }
      ],
      "weights": [
        0,
        0,
        0,
        0,
        0,
        0,
        0,
        0,
        0,
        0,
        0,
        0,
        0,
        0,
        0,
        0,
        0,
        0,
        0,
        0,
        0,
        0,
        0,
        0,
        0,
        0,
        0,
        0,
        0,
        0,
        0,
        0,
        0,
        0,
        0,
        0,
        0,
        0,
        0,
        0,
        0,
        0,
        0,
        0,
        0,
        0,
        0,
        0,
        0,
        0,
        0,
        0,
        0,
        0,
        0,
        0,
        0,
        0,
        0,
        0,
        0,
        0,
        0,
        0,
        0,
        0,
        0,
        0,
        0,
        0,
        0,
        0,
        0,
        0,
        0,
        0,
        0,
        0,
        0,
        0,
        0,
        0,
        0,
        0,
        0,
        0,
        0,
        0,
        0,
        0,
        0,
        0,
        0,
        0,
        0,
        0,
        0,
        0,
        0,
        0,
        0,
        0,
        0,
        0,
        0,
        0,
        0,
        0,
        0,
        0,
        0,
        0,
        0,
        0,
        0,
        0,
        0,
        0,
        0,
        0,
        0,
        0,
        0,
        0,
        0,
        0,
        0,
        0,
        0,
        0,
        0,
        0,
        0,
        0,
        0,
        0,
        0,
        0,
        0,
        0,
        0,
        0,
        0,
        0,
        0,
        0,
        0,
        0,
        0,
        0,
        0,
        0,
        0,
        0,
        0,
        0,
        0,
        0,
        0,
        0,
        0,
        0,
        0,
        0,
        0,
        0,
        0,
        0,
        0,
        0,
        0,
        0,
        0,
        0,
        0,
        0,
        0,
        0,
        0,
        0,
        0,
        0,
        0,
        0,
        0,
        0,
        0,
        0,
        0,
        0,
        0,
        0,
        0,
        0,
        0,
        0,
        0,
        0,
        0,
        0,
        0,
        0,
        0,
        0,
        0,
        0,
        0,
        0,
        0,
        0,
        0,
        0,
        0,
        0,
        0,
        0,
        0,
        0,
        0,
        0,
        0,
        0,
        0,
        0,
        0,
        0,
        0,
        0,
        0,
        0,
        0,
        0,
        0,
        0,
        0,
        0,
        0,
        0,
        0,
        0,
        0,
        0,
        0,
        0,
        0,
        0.28576544917658964,
        0.7142345508234104,
        0,
        0,
        0,
        0,
        0,
        0,
        0,
        0,
        0,
        0,
        0,
        0,
        0,
        0,
        0,
        0,
        0,
        0,
        0,
        0,
        0,
        0,
        0,
        0,
        0,
        0,
        0,
        0,
        0,
        0,
        0,
        0,
        0,
        0,
        0,
        0,
        0,
        0,
        0,
        0,
        0,
        0,
        0,
        0,
        0,
        0,
        0,
        0,
        0,
        0,
        0,
        0,
        0
      ]
    },
    {
      "primitives": [
        {
          "material": 1,
          "mode": 4,
          "attributes": {
            "POSITION": 4,
            "NORMAL": 5,
            "TEXCOORD_0": 6
          },
          "indices": 7
        }
      ]
    }
  ],
  "materials": [
    {
      "name": "Material.001",
      "pbrMetallicRoughness": {
        "baseColorFactor": [
          0.12156862745098039,
          0.18823529411764706,
          0.8,
          1
        ],
        "metallicFactor": 0,
        "roughnessFactor": 0.5
      },
      "emissiveFactor": [
        0,
        0,
        0
      ],
      "alphaMode": "OPAQUE",
      "doubleSided": true
    },
    {
      "name": "Material.002",
      "pbrMetallicRoughness": {
        "baseColorFactor": [
          0.12156862745098039,
          0.18823529411764706,
          0.8,
          1
        ],
        "metallicFactor": 0,
        "roughnessFactor": 0.5
      },
      "emissiveFactor": [
        0,
        0,
        0
      ],
      "alphaMode": "OPAQUE",
      "doubleSided": true
    }
  ]
}