{
  "asset": {
    "generator": "Khronos glTF Blender I/O v1.6.16",
    "version": "2.0"
  },
  "scene": 0,
  "scenes": [
    {
      "name": "Scene",
      "nodes": [
        0
      ]
    }
  ],
  "nodes": [
    {
      "mesh": 0,
      "name": "Sphere",
      "rotation": [
        0.12316309660673141,
        -0.2832651734352112,
        0.013629190623760223,
        0.9510027170181274
      ],
      "scale": [
        1,
        -1,
        -1
      ]
    }
  ],
  "materials": [
    {
      "doubleSided": true,
      "name": "Material.001",
      "pbrMetallicRoughness": {
        "baseColorFactor": [
          0.1714411973953247,
          0.34191447496414185,
          0.7991030216217041,
          1
        ]
      }
    }
  ],
  "meshes": [
    {
      "name": "Sphere.001",
      "primitives": [
        {
          "attributes": {
            "POSITION": 0,
            "NORMAL": 1,
            "TEXCOORD_0": 2
          },
          "indices": 3,
          "material": 0
        }
      ]
    }
  ],
  "accessors": [
    {
      "bufferView": 0,
      "componentType": 5126,
      "count": 90599,
      "max": [
        2.492723226547241,
        2.5,
        2.498199701309204
      ],
      "min": [
        -2.4994258880615234,
        -2.5,
        -2.4999847412109375
      ],
      "type": "VEC3"
    },
    {
      "bufferView": 1,
      "componentType": 5126,
      "count": 90599,
      "type": "VEC3"
    },
    {
      "bufferView": 2,
      "componentType": 5126,
      "count": 90599,
      "type": "VEC2"
    },
    {
      "bufferView": 3,
      "componentType": 5125,
      "count": 538200,
      "type": "SCALAR"
    }
  ],
  "bufferViews": [
    {
      "buffer": 0,
      "byteLength": 1087188,
      "byteOffset": 0
    },
    {
      "buffer": 0,
      "byteLength": 1087188,
      "byteOffset": 1087188
    },
    {
      "buffer": 0,
      "byteLength": 724792,
      "byteOffset": 2174376
    },
    {
      "buffer": 0,
      "byteLength": 2152800,
      "byteOffset": 2899168
    }
  ],
  "buffers": [
    {
      "uri": "sphere-no-animation_data.bin",
      "byteLength": 5051968
    }
  ]
}