<svg width="271" height="36" viewBox="0 0 271 36" fill="none" xmlns="http://www.w3.org/2000/svg">
<path d="M12.2727 35C22.9091 35 29.2159 28.4205 29.2159 17.5114C29.2159 6.63636 22.9091 0.0909081 12.5114 0.0909081H0.443182V35H12.2727ZM6.76705 29.5284V5.5625H12.1534C19.2443 5.5625 22.9432 9.51705 22.9432 17.5114C22.9432 25.5398 19.2443 29.5284 11.9659 29.5284H6.76705ZM34.9517 35H41.1222V19.608C41.1222 16.2841 43.6278 13.9318 47.0199 13.9318C48.0597 13.9318 49.3551 14.1193 49.8835 14.2898V8.61364C49.321 8.51136 48.3494 8.44318 47.6676 8.44318C44.6676 8.44318 42.1619 10.1477 41.2074 13.1818H40.9347V8.81818H34.9517V35ZM64.4957 35.5114C70.598 35.5114 74.7912 32.5284 75.8821 27.9773L70.1207 27.3295C69.2855 29.5455 67.2401 30.7045 64.581 30.7045C60.5923 30.7045 57.9503 28.0795 57.8991 23.5966H76.1378V21.7045C76.1378 12.517 70.6151 8.47727 64.1719 8.47727C56.6719 8.47727 51.7798 13.983 51.7798 22.0625C51.7798 30.2784 56.6037 35.5114 64.4957 35.5114ZM57.9162 19.4375C58.1037 16.0966 60.5753 13.2841 64.2571 13.2841C67.8026 13.2841 70.1889 15.875 70.223 19.4375H57.9162ZM88.892 35.5284C93 35.5284 95.4545 33.6023 96.5795 31.4034H96.7841V35H102.716V17.4773C102.716 10.5568 97.0739 8.47727 92.0795 8.47727C86.5739 8.47727 82.3466 10.9318 80.983 15.7045L86.7443 16.5227C87.358 14.733 89.0966 13.1989 92.1136 13.1989C94.9773 13.1989 96.5455 14.6648 96.5455 17.2386V17.3409C96.5455 19.1136 94.6875 19.1989 90.0682 19.6932C84.9886 20.2386 80.1307 21.7557 80.1307 27.6534C80.1307 32.8011 83.8977 35.5284 88.892 35.5284ZM90.4943 30.9943C87.9205 30.9943 86.0795 29.8182 86.0795 27.5511C86.0795 25.1818 88.142 24.1932 90.9034 23.8011C92.5227 23.5795 95.7614 23.1705 96.5625 22.5227V25.608C96.5625 28.5227 94.2102 30.9943 90.4943 30.9943ZM108.92 35H115.091V19.0795C115.091 15.858 117.239 13.6761 119.898 13.6761C122.506 13.6761 124.295 15.4318 124.295 18.125V35H130.347V18.6705C130.347 15.7216 132.102 13.6761 135.085 13.6761C137.574 13.6761 139.551 15.142 139.551 18.3807V35H145.739V17.4261C145.739 11.5795 142.364 8.47727 137.557 8.47727C133.756 8.47727 130.858 10.3523 129.699 13.267H129.426C128.42 10.3011 125.881 8.47727 122.352 8.47727C118.841 8.47727 116.216 10.2841 115.125 13.267H114.818V8.81818H108.92V35ZM148.534 5.39205H159.324V35H165.597V5.39205H176.386V0.0909081H148.534V5.39205ZM189.277 35.5114C195.379 35.5114 199.572 32.5284 200.663 27.9773L194.902 27.3295C194.067 29.5455 192.021 30.7045 189.362 30.7045C185.374 30.7045 182.732 28.0795 182.68 23.5966H200.919V21.7045C200.919 12.517 195.396 8.47727 188.953 8.47727C181.453 8.47727 176.561 13.983 176.561 22.0625C176.561 30.2784 181.385 35.5114 189.277 35.5114ZM182.697 19.4375C182.885 16.0966 185.357 13.2841 189.038 13.2841C192.584 13.2841 194.97 15.875 195.004 19.4375H182.697ZM213.673 35.5284C217.781 35.5284 220.236 33.6023 221.361 31.4034H221.565V35H227.497V17.4773C227.497 10.5568 221.855 8.47727 216.861 8.47727C211.355 8.47727 207.128 10.9318 205.764 15.7045L211.526 16.5227C212.139 14.733 213.878 13.1989 216.895 13.1989C219.759 13.1989 221.327 14.6648 221.327 17.2386V17.3409C221.327 19.1136 219.469 19.1989 214.849 19.6932C209.77 20.2386 204.912 21.7557 204.912 27.6534C204.912 32.8011 208.679 35.5284 213.673 35.5284ZM215.276 30.9943C212.702 30.9943 210.861 29.8182 210.861 27.5511C210.861 25.1818 212.923 24.1932 215.685 23.8011C217.304 23.5795 220.543 23.1705 221.344 22.5227V25.608C221.344 28.5227 218.991 30.9943 215.276 30.9943ZM233.702 35H239.872V19.0795C239.872 15.858 242.02 13.6761 244.679 13.6761C247.287 13.6761 249.077 15.4318 249.077 18.125V35H255.128V18.6705C255.128 15.7216 256.884 13.6761 259.866 13.6761C262.355 13.6761 264.332 15.142 264.332 18.3807V35H270.52V17.4261C270.52 11.5795 267.145 8.47727 262.338 8.47727C258.537 8.47727 255.639 10.3523 254.48 13.267H254.207C253.202 10.3011 250.662 8.47727 247.134 8.47727C243.622 8.47727 240.997 10.2841 239.906 13.267H239.599V8.81818H233.702V35Z" fill="white"/>
</svg>
