<svg width="64" height="64" viewBox="0 0 64 64" fill="none" xmlns="http://www.w3.org/2000/svg">
<path d="M0 32C0 14.3269 14.3269 0 32 0C49.6731 0 64 14.3269 64 32C64 49.6731 49.6731 64 32 64C14.3269 64 0 49.6731 0 32Z" fill="#F9F9FC"/>
<rect x="20" y="12" width="24" height="40" rx="5" fill="url(#paint0_linear)"/>
<path fill-rule="evenodd" clip-rule="evenodd" d="M37.75 14H39C40.6569 14 42 15.3431 42 17V47C42 48.6569 40.6569 50 39 50H25C23.3431 50 22 48.6569 22 47V17C22 15.3431 23.3431 14 25 14H26.25C26.6613 14 26.9958 14.3312 26.9999 14.7425L27 14.75V15C27 15.8284 27.6716 16.5 28.5 16.5H35.5C36.3284 16.5 37 15.8284 37 15V14.75L37.0001 14.7425C37.0042 14.3312 37.3387 14 37.75 14ZM20 17C20 14.2386 22.2386 12 25 12H39C41.7614 12 44 14.2386 44 17V47C44 49.7614 41.7614 52 39 52H25C22.2386 52 20 49.7614 20 47V17Z" fill="#103660"/>
<defs>
<linearGradient id="paint0_linear" x1="32" y1="12" x2="32" y2="52" gradientUnits="userSpaceOnUse">
<stop stop-color="#2F9BFF"/>
<stop offset="1" stop-color="#5E39F0"/>
</linearGradient>
</defs>
</svg>
