<svg fill="none" height="40" viewBox="0 0 120 40" width="120" xmlns="http://www.w3.org/2000/svg" xmlns:xlink="http://www.w3.org/1999/xlink"><clipPath id="a"><path d="m0 0h119.664v40h-119.664z"/></clipPath><g clip-path="url(#a)"><rect fill="#a6a6a6" height="40" rx="5" width="119" y=".000008"/><rect fill="#000" height="38" rx="4" width="117" x="1" y="1.00001"/><g fill="#fff"><path d="m24.7689 20.3007c.0107-.8347.2324-1.6531.6445-2.379.412-.726 1.0009-1.3359 1.712-1.7731-.4517-.6451-1.0476-1.1761-1.7405-1.5506-.6928-.3746-1.4634-.5824-2.2506-.6071-1.6793-.1762-3.3072 1.0049-4.1629 1.0049-.8723 0-2.1898-.9874-3.6085-.9582-.9177.0297-1.812.2965-2.5959.7746-.7839.478-1.4306 1.151-1.877 1.9533-1.93404 3.3484-.4915 8.2695 1.3612 10.9761.9269 1.3253 2.0101 2.8058 3.4276 2.7533 1.387-.0575 1.9051-.8845 3.5794-.8845 1.6587 0 2.1448.8845 3.591.8511 1.4884-.0242 2.4261-1.3312 3.3205-2.6691.666-.9444 1.1784-1.9881 1.5184-3.0925-.8647-.3658-1.6026-.978-2.1217-1.7603-.5192-.7822-.7965-1.7001-.7975-2.6389z"/><path d="m22.0373 12.2109c.8115-.9742 1.2113-2.2264 1.1145-3.49063-1.2399.13022-2.3851.72278-3.2076 1.65963-.4021.4576-.7101.9901-.9064 1.5668-.1962.5768-.2769 1.1866-.2373 1.7946.6201.0064 1.2336-.1281 1.7943-.3931.5607-.2651 1.0539-.654 1.4425-1.1373z"/><path d="m42.3023 27.1397h-4.7334l-1.1367 3.3564h-2.0049l4.4834-12.418h2.083l4.4834 12.418h-2.0391zm-4.2432-1.5489h3.752l-1.8496-5.4472h-.0518z"/><path d="m55.1597 25.9697c0 2.8135-1.5059 4.6211-3.7783 4.6211-.5757.0301-1.1482-.1025-1.652-.3826-.5038-.2802-.9185-.6965-1.1967-1.2014h-.043v4.4844h-1.8584v-12.0488h1.7989v1.5058h.0342c.2909-.5024.7127-.9166 1.2203-1.1985.5076-.2818 1.0822-.4208 1.6625-.4021 2.2978.0001 3.8125 1.8165 3.8125 4.6221zm-1.9102 0c0-1.833-.9472-3.0381-2.3925-3.0381-1.42 0-2.375 1.2305-2.375 3.0381 0 1.8242.955 3.0459 2.375 3.0459 1.4453 0 2.3925-1.1963 2.3925-3.0459z"/><path d="m65.1245 25.9697c0 2.8135-1.5058 4.6211-3.7783 4.6211-.5756.0301-1.1481-.1025-1.6519-.3826s-.9186-.6965-1.1967-1.2014h-.043v4.4844h-1.8584v-12.0488h1.7988v1.5058h.0342c.2909-.5024.7127-.9166 1.2203-1.1985.5076-.2818 1.0822-.4208 1.6625-.402 2.2979 0 3.8125 1.8164 3.8125 4.622zm-1.9101 0c0-1.833-.9473-3.0381-2.3926-3.0381-1.4199 0-2.375 1.2305-2.375 3.0381 0 1.8243.9551 3.0459 2.375 3.0459 1.4453 0 2.3926-1.1963 2.3926-3.0459z"/><path d="m71.7105 27.0361c.1377 1.2315 1.334 2.04 2.9687 2.04 1.5664 0 2.6934-.8086 2.6934-1.9189 0-.9639-.6797-1.541-2.2891-1.9365l-1.6093-.3877c-2.2803-.5508-3.3389-1.6172-3.3389-3.3477 0-2.1426 1.8672-3.6143 4.5185-3.6143 2.624 0 4.4229 1.4717 4.4834 3.6143h-1.876c-.1123-1.2393-1.1367-1.9873-2.6338-1.9873-1.497 0-2.5214.7568-2.5214 1.8584 0 .8779.6543 1.3945 2.2548 1.79l1.3682.3359c2.5479.6026 3.6065 1.626 3.6065 3.4424 0 2.3233-1.8506 3.7783-4.794 3.7783-2.7539 0-4.6133-1.4209-4.7334-3.667z"/><path d="m83.3462 19.2998v2.1426h1.7217v1.4717h-1.7217v4.9912c0 .7754.3447 1.1367 1.1016 1.1367.2044-.0036.4084-.0179.6113-.043v1.4629c-.3403.0636-.6861.0924-1.0322.0859-1.833 0-2.5479-.6885-2.5479-2.4443v-5.1894h-1.3164v-1.4717h1.3164v-2.1426z"/><path d="m86.065 25.9697c0-2.8486 1.6777-4.6386 4.2939-4.6386 2.625 0 4.295 1.79 4.295 4.6386 0 2.8565-1.6612 4.6387-4.295 4.6387-2.6328 0-4.2939-1.7822-4.2939-4.6387zm6.6953 0c0-1.9541-.8955-3.1074-2.4014-3.1074-1.5058 0-2.4004 1.1621-2.4004 3.1074 0 1.9619.8946 3.1065 2.4004 3.1065 1.5059 0 2.4014-1.1446 2.4014-3.1065z"/><path d="m96.1861 21.4424h1.7724v1.541h.043c.1199-.4813.4019-.9066.7985-1.2045s.8836-.4502 1.379-.4313c.214-.0007.428.0226.637.0694v1.7383c-.27-.0827-.552-.1206-.835-.1123-.27-.011-.5392.0366-.789.1395s-.4745.2586-.6584.4565c-.184.1979-.323.4333-.4074.6899-.0844.2567-.1123.5286-.0818.7971v5.3701h-1.8583z"/><path d="m109.384 27.8369c-.25 1.6436-1.85 2.7715-3.898 2.7715-2.634 0-4.269-1.7647-4.269-4.5957 0-2.8398 1.644-4.6816 4.191-4.6816 2.505 0 4.08 1.7207 4.08 4.4658v.6367h-6.395v.1123c-.029.3332.012.6689.123.9847.11.3158.286.6046.516.8472.231.2425.51.4333.82.5596.309.1263.643.1852.977.1729.439.0412.88-.0605 1.256-.29.377-.2294.67-.5743.835-.9834zm-6.282-2.7021h4.526c.017-.2996-.028-.5994-.133-.8807-.105-.2812-.266-.5377-.475-.7535-.208-.2157-.459-.3861-.737-.5003-.277-.1142-.575-.1698-.875-.1634-.303-.0018-.603.0564-.883.1711s-.535.2838-.749.4974c-.214.2137-.384.4676-.5.7473-.116.2796-.175.5794-.174.8821z"/><path d="m37.8262 8.731c.3896-.02796.7806.0309 1.1447.17233.3641.14144.6923.36192.9609.64554.2685.28363.4708.62333.5922.99463.1214.3712.1589.7648.1098 1.1523 0 1.9063-1.0303 3.002-2.8076 3.002h-2.1553v-5.9668zm-1.2285 5.123h1.125c.2784.0166.557-.029.8155-.1336.2586-.1046.4905-.2656.679-.4712.1885-.2055.3288-.4505.4107-.7171.0818-.2667.1032-.5482.0625-.8241.0377-.2748.0142-.5546-.0689-.8193-.0831-.2646-.2238-.5076-.4118-.7116-.1881-.2039-.4189-.36371-.676-.46794-.2571-.10424-.534-.15032-.811-.13495h-1.125z"/><path d="m41.6807 12.4443c-.0283-.2959.0055-.5945.0994-.8765.0938-.2821.2456-.5414.4455-.7614s.4437-.3958.7155-.516c.2719-.1203.5659-.1824.8631-.1824.2973 0 .5913.0621.8631.1824.2719.1202.5156.296.7155.516.2.22.3517.4793.4456.7614.0938.282.1277.5806.0994.8765.0288.2963-.0046.5952-.0982.8778-.0936.2825-.2453.5423-.4453.7627s-.4439.3966-.716.5171-.5665.1828-.8641.1828-.5919-.0623-.8641-.1828c-.2721-.1205-.516-.2967-.716-.5171s-.3516-.4802-.4452-.7627c-.0936-.2826-.1271-.5815-.0982-.8778zm3.333 0c0-.976-.4385-1.5468-1.208-1.5468-.7725 0-1.207.5708-1.207 1.5468 0 .9839.4346 1.5503 1.207 1.5503.7695 0 1.208-.5703 1.208-1.5503z"/><path d="m51.5733 14.6977h-.9219l-.9307-3.3164h-.0703l-.9267 3.3164h-.9131l-1.2412-4.5029h.9013l.8067 3.436h.0664l.9258-3.436h.8525l.9258 3.436h.0703l.8027-3.436h.8887z"/><path d="m53.8535 10.1948h.8555v.7153h.0664c.1127-.2569.3027-.4722.5435-.6161.2409-.1438.5206-.2088.8003-.1861.2191-.0165.4391.0166.6437.0967.2046.08.3885.2052.5382.366s.2613.3533.3265.5631.0823.4316.0501.649v2.915h-.8886v-2.6918c0-.7237-.3145-1.0835-.9717-1.0835-.1488-.007-.2973.0183-.4353.0742-.1381.0558-.2624.1408-.3645.2492-.1022.1084-.1797.2376-.2272.3787s-.064.2909-.0482.439v2.6342h-.8887z"/><path d="m59.0938 8.437h.8886v6.2607h-.8886z"/><path d="m61.2178 12.4443c-.0283-.2959.0056-.5945.0994-.8766.0939-.282.2457-.5414.4456-.7614.2-.22.4437-.3957.7156-.516s.5659-.1824.8632-.1824.5913.0621.8631.1824c.2719.1203.5156.296.7156.516s.3517.4794.4456.7614c.0939.2821.1277.5807.0994.8766.0289.2963-.0046.5953-.0982.8778-.0937.2825-.2454.5423-.4454.7627s-.4439.3966-.716.5171c-.2722.1205-.5665.1828-.8641.1828-.2977 0-.592-.0623-.8641-.1828-.2722-.1205-.5161-.2967-.7161-.5171s-.3517-.4802-.4453-.7627-.1271-.5815-.0983-.8778zm3.333 0c0-.976-.4385-1.5468-1.208-1.5468-.7725 0-1.207.5708-1.207 1.5468 0 .9839.4346 1.5503 1.207 1.5503.7695 0 1.208-.5703 1.208-1.5503z"/><path d="m66.4009 13.4243c0-.8105.6035-1.2778 1.6748-1.3442l1.2197-.0703v-.3887c0-.4756-.3144-.7441-.9218-.7441-.4961 0-.8399.1821-.9385.5004h-.8604c.0909-.7734.8184-1.2695 1.8399-1.2695 1.1289 0 1.7656.562 1.7656 1.5132v3.0767h-.8555v-.6329h-.0703c-.1427.227-.3431.4121-.5807.5363s-.504.1831-.7718.1707c-.189.0197-.3801-.0005-.5609-.0592-.1807-.0587-.3472-.1546-.4886-.2815-.1414-.127-.2547-.2822-.3324-.4556-.0778-.1734-.1183-.3612-.1191-.5513zm2.8945-.3848v-.3764l-1.0996.0703c-.6201.0415-.9013.2524-.9013.6494 0 .4053.3515.6411.835.6411.1416.0144.2847.0001.4207-.042s.2621-.1111.3709-.203c.1088-.0918.198-.2046.2623-.3316.0643-.1271.1024-.2657.112-.4078z"/><path d="m71.3482 12.4443c0-1.4228.7314-2.3242 1.8691-2.3242.2814-.013.5607.0545.8052.1943.2446.1399.4442.3465.5757.5957h.0664v-2.4731h.8886v6.2607h-.8515v-.7114h-.0703c-.1416.2475-.3483.4515-.5975.59-.2493.1385-.5316.2061-.8166.1956-1.1455.0001-1.8691-.9013-1.8691-2.3276zm.918 0c0 .9551.4502 1.5298 1.2031 1.5298.749 0 1.2119-.583 1.2119-1.5259 0-.9384-.4678-1.5297-1.2119-1.5297-.7481 0-1.2032.5786-1.2032 1.5258z"/><path d="m79.23 12.4443c-.0283-.2959.0055-.5945.0994-.8765.0938-.2821.2456-.5414.4455-.7614.2-.22.4437-.3958.7155-.516.2719-.1203.5659-.1824.8631-.1824.2973 0 .5913.0621.8631.1824.2719.1202.5156.296.7155.516.2.22.3517.4793.4456.7614.0938.282.1277.5806.0994.8765.0288.2963-.0046.5952-.0982.8778-.0936.2825-.2453.5423-.4453.7627s-.4439.3966-.716.5171-.5664.1828-.8641.1828c-.2976 0-.5919-.0623-.864-.1828-.2722-.1205-.5161-.2967-.7161-.5171s-.3516-.4802-.4452-.7627c-.0936-.2826-.127-.5815-.0982-.8778zm3.333 0c0-.976-.4385-1.5468-1.208-1.5468-.7725 0-1.207.5708-1.207 1.5468 0 .9839.4346 1.5503 1.207 1.5503.7695 0 1.208-.5703 1.208-1.5503z"/><path d="m84.6694 10.1948h.8555v.7153h.0664c.1127-.2569.3027-.4722.5436-.6161.2408-.1438.5206-.2088.8002-.1861.2191-.0165.4391.0166.6437.0967.2046.08.3885.2052.5382.366s.2613.3533.3265.5631.0823.4316.0502.649v2.915h-.8887v-2.6918c0-.7237-.3144-1.0835-.9717-1.0835-.1487-.007-.2972.0183-.4353.0742-.1381.0558-.2624.1408-.3645.2492-.1022.1084-.1796.2376-.2272.3787-.0475.1411-.0639.2909-.0482.439v2.6342h-.8887z"/><path d="m93.5152 9.07373v1.14157h.9756v.7486h-.9756v2.3154c0 .4717.1943.6782.6367.6782.1132-.0003.2264-.0072.3389-.0205v.7402c-.1596.0286-.3213.0438-.4834.0454-.9883 0-1.3819-.3476-1.3819-1.2158v-2.543h-.7148v-.7485h.7148v-1.14157z"/><path d="m95.7046 8.437h.8809v2.4814h.0703c.1181-.2593.3133-.4759.559-.6202.2457-.1444.53-.2094.814-.1864.2179-.0119.4358.0245.6381.1066.2023.082.384.2077.5321.368.1481.1604.259.3514.3248.5596.0658.2081.0848.4282.0558.6445v2.9072h-.8896v-2.688c0-.7192-.335-1.0835-.9629-1.0835-.1527-.0125-.3064.0085-.4501.0616-.1438.053-.2743.1369-.3822.2456-.108.1087-.191.2397-.243.3839-.0521.1441-.072.2979-.0585.4505v2.6299h-.8886z"/><path d="m104.761 13.4819c-.12.4116-.382.7676-.739 1.0057-.356.2382-.786.3433-1.212.2971-.297.0078-.591-.049-.864-.1666-.272-.1175-.516-.2929-.714-.514-.198-.2212-.345-.4827-.432-.7666-.087-.2838-.111-.5831-.07-.8771-.04-.2948-.015-.5948.071-.8794.087-.2847.233-.5475.43-.7706.197-.223.44-.4012.711-.5224.272-.1212.567-.1826.864-.1801 1.253 0 2.009.856 2.009 2.27v.3101h-3.18v.0498c-.014.1652.007.3316.061.4883.054.1568.141.3005.254.4219.112.1215.25.218.402.2834s.317.0982.482.0964c.213.0255.428-.0128.619-.11s.348-.2489.453-.4359zm-3.126-1.4511h2.275c.011-.1512-.01-.303-.061-.4457s-.131-.2732-.235-.383c-.105-.1099-.231-.1967-.371-.2549s-.29-.0864-.442-.0829c-.153-.002-.306.0269-.448.0848-.143.058-.272.1438-.381.2525-.108.1088-.194.2381-.252.3805s-.087.295-.085.4487z"/></g></g></svg>