<svg enable-background="new 0 0 42.875 51.763" fill="#fff" height="51.763" viewBox="0 0 42.875 51.763" width="42.875" xmlns="http://www.w3.org/2000/svg" xmlns:xlink="http://www.w3.org/1999/xlink"><clipPath id="a"><path d="m-22.875-22.479h236.616v96.854h-236.616z"/></clipPath><path clip-path="url(#a)" d="m38.496 3.952-11.208-2.989c-3.828-1.021-7.857-1.021-11.686 0l-11.208 2.989c-2.482.662-4.209 2.91-4.209 5.478v19.592c0 5.714 2.87 11.047 7.638 14.195l12.256 8.09c.955.63 2.196.624 3.145-.016l11.973-8.062c4.693-3.16 7.508-8.449 7.508-14.107v-19.692c0-2.568-1.727-4.816-4.209-5.478m-26.973 30.538c-1.566 0-2.835-1.269-2.835-2.834 0-1.566 1.269-2.835 2.835-2.835 1.565 0 2.835 1.269 2.835 2.835s-1.27 2.834-2.835 2.834m7.086-8.503h-7.086c-1.566 0-2.835-1.27-2.835-2.835 0-1.566 1.269-2.835 2.835-2.835h7.086c1.566 0 2.835 1.269 2.835 2.835.001 1.565-1.268 2.835-2.835 2.835m15.592-11.339c0 1.565-1.269 2.835-2.835 2.835h-19.843c-1.566 0-2.835-1.27-2.835-2.835 0-1.566 1.269-2.835 2.835-2.835h19.842c1.567 0 2.836 1.27 2.836 2.835z"/></svg>