<svg fill="none" height="35" viewBox="0 0 29 35" width="29" xmlns="http://www.w3.org/2000/svg" xmlns:xlink="http://www.w3.org/1999/xlink"><clipPath id="a"><path d="m0 0h29v35h-29z"/></clipPath><g clip-path="url(#a)"><path d="m23.8824 29.2353-8.1676 5.4559c-.672.4118-1.4991.4632-2.1194 0l-8.37437-5.5074c-3.25668-2.1103-5.22103-5.7132-5.22103-9.625v-13.27938c0-1.75 1.18895-3.29412 2.89483-3.70588l7.59897-2.058823c2.5846-.669118 5.3761-.669118 7.9607 0l7.6507 2.058823c1.7059.46324 2.8948 1.95588 2.8948 3.70588v13.38238c0 3.8088-1.9127 7.4117-5.1176 9.5735z" fill="#e20613"/><path d="m21.246 11.7353h-13.49197c-1.08557 0-1.91266-.875-1.91266-1.90441s.87879-1.90441 1.91266-1.90441h13.54367c1.0856 0 1.9127.875 1.9127 1.90441s-.8788 1.90441-1.9644 1.90441zm-6.7718 3.8603c0-1.0809-.8788-1.9044-1.9127-1.9044h-4.80747c-1.08557 0-1.91266.875-1.91266 1.9044 0 1.0809.87879 1.9044 1.91266 1.9044h4.80747c1.0856 0 1.9127-.875 1.9127-1.9044zm-4.80752 5.7647c0-1.0809-.87879-1.9044-1.91265-1.9044-1.03387 0-1.91266.875-1.91266 1.9044 0 1.0809.87879 1.9044 1.91266 1.9044 1.03386 0 1.91265-.8235 1.91265-1.9044z" fill="#fff"/></g></svg>