<svg fill="none" height="27" viewBox="0 0 21 27" width="21" xmlns="http://www.w3.org/2000/svg"><path d="m18.3362 12.3916-3.7064-3.70644v-6.38326c0-1.26927-1.0326-2.3019-2.3019-2.3019h-10.026c-1.26927 0-2.3019 1.03263-2.3019 2.3019v21.5867c0 1.2692 1.03263 2.3019 2.3019 2.3019h15.6529c.3655 0 .6803-.2578.7523-.6162l1.4298-7.1178c.4467-2.2235-.2265-4.4907-1.8007-6.0649zm-16.0343-10.857h10.026c.4231 0 .7673.34421.7673.7673v9.8971c-.9411-.9282-2.453-.9231-3.38774.0115-.93667.9352-.94117 2.4533-.00624 3.3945l2.93908 3.0556c-.6372.4755-1.4626 1.3054-2.0554 2.6703h-9.0503v-19.029c0-.42309.34416-.7673.7673-.7673zm-.7673 22.354v-1.0231h8.5543c-.12163.538-.20767 1.133-.24558 1.7904h-7.54142c-.42314 0-.7673-.3442-.7673-.7673zm17.0978-5.7344-1.3061 6.5017c-1.2338 0-4.678 0-5.9448 0 .1106-1.6298.5798-2.9957 1.3733-3.9815.6578-.8174 1.3276-1.1105 1.3809-1.1329.5021-.1797.6816-.8314.2799-1.249-3.628-3.7718-3.6169-3.7604-3.6234-3.7668-.337-.337-.3424-.8878 0-1.2296.3382-.3382.8881-.3391 1.2275-.0025 1.6221 1.6592.8333.863 3.672 3.7017.2996.2996.7855.2997 1.0851 0 .2997-.2997.2997-.7855 0-1.0851l-2.147-2.147v-2.9078l2.6213 2.6213c1.2102 1.2102 1.7266 2.9588 1.3813 4.6775z" fill="#ed1c24"/></svg>