<svg fill="none" height="27" viewBox="0 0 27 27" width="27" xmlns="http://www.w3.org/2000/svg" xmlns:xlink="http://www.w3.org/1999/xlink"><clipPath id="a"><path d="m0 0h26.0907v26.0907h-26.0907z"/></clipPath><g clip-path="url(#a)" fill="#ed1c24"><path d="m21.2576 0h-12.87324c-1.42867 0-2.59093 1.09729-2.59093 2.44601v.81533h-1.78069c-.97631 0-1.77055.79424-1.77055 1.77055v19.28831c0 .9763.79424 1.7705 1.77055 1.7705h14.51406c.9763 0 1.7705-.7942 1.7705-1.7705v-1.4908h.9603c1.4287 0 2.591-1.0973 2.591-2.446v-17.93739c0-1.34872-1.1623-2.44601-2.591-2.44601zm-2.5909 24.3202c0 .0771-.0628.1399-.1399.1399h-14.51406c-.07715 0-.13988-.0628-.13988-.1399v-19.28831c0-.07715.06273-.13988.13988-.13988h14.51406c.0771 0 .1399.06273.1399.13988zm3.5512-3.9368c0 .4495-.4308.8153-.9603.8153h-.9603v-16.16681c0-.97631-.7942-1.77055-1.7705-1.77055h-11.1027v-.81533c0-.44956.4308-.81534.96026-.81534h12.87324c.5295 0 .9603.36578.9603.81534z"/><path d="m15.2876 11.007h-7.7457c-.45027 0-.81534-.365-.81534-.8153 0-.45026.36507-.81533.81534-.81533h7.7457c.4503 0 .8153.36507.8153.81533 0 .4503-.365.8153-.8153.8153z"/><path d="m15.2876 14.2684h-7.7457c-.45027 0-.81534-.3651-.81534-.8154 0-.4502.36507-.8153.81534-.8153h7.7457c.4503 0 .8153.3651.8153.8153 0 .4503-.365.8154-.8153.8154z"/><path d="m15.2876 17.5297h-7.7457c-.45027 0-.81534-.365-.81534-.8153s.36507-.8154.81534-.8154h7.7457c.4503 0 .8153.3651.8153.8154s-.365.8153-.8153.8153z"/></g></svg>