<svg fill="none" height="14" viewBox="0 0 15 14" width="15" xmlns="http://www.w3.org/2000/svg"><path d="m14.6803 6.1537c-.3282-.22257-.7758-.13234-.9906.1985l-.0239.03008c-.2626-3.56108-3.2225-6.38228-6.82693-6.38228-3.77152 0-6.83887 3.09189-6.83887 6.89358 0 3.80172 3.06735 6.89362 6.83887 6.89362.52515 0 .95482-.4331.95482-.9625 0-.5293-.42967-.9624-.95482-.9624-2.72122 0-4.92924-2.23174-4.92924-4.96872s2.21398-4.96867 4.92924-4.96867c2.51833 0 4.60703 1.91889 4.89943 4.37917-.2268-.28874-.6445-.35491-.9548-.15038-.3283.22256-.4178.6677-.197.99854l1.4203 2.14146c.1671.25265.4416.40303.7281.40303.2864 0 .5609-.15038.728-.40303l1.4203-2.14146c.2148-.32483.1253-.77598-.2029-.99854z" fill="#ed1c24"/></svg>