<svg fill="none" height="18" viewBox="0 0 18 18" width="18" xmlns="http://www.w3.org/2000/svg"><g fill="#898989"><path d="m12.2 17.5417h-6.39997c-.64031-.0093-1.25354-.2599-1.71704-.7018-.46351-.4419-.74313-1.0424-.78296-1.6816l-.75833-11.53332c-.00389-.08362.00884-.16718.03745-.24585.0286-.07867.07252-.15089.12922-.21248.0584-.06383.12911-.1152.20788-.151.07876-.0358.16395-.0553.25045-.05734h11.6667c.0857-.00019.1705.01725.2492.05123.0787.03399.1495.08379.2081.14631s.1038.13643.1326.21714c.0288.0807.0408.16648.0351.25199l-.725 11.53332c-.0403.6449-.3246 1.2502-.7952 1.6929s-1.0921.6896-1.7382.6905zm-8.3333-13.33339.64167 10.87499c.0212.3279.16659.6355.40656.86.23998.2244.55649.349.8851.3484h6.39997c.3281-.0013.6435-.1266.883-.3507.2396-.2241.3856-.5305.4087-.8577l.675-10.83332z"/><path d="m16.5 4.20837h-15c-.16576 0-.32473-.06584-.44194-.18305-.117212-.11721-.18306-.27619-.18306-.44195s.065848-.32473.18306-.44194c.11721-.11721.27618-.18306.44194-.18306h15c.1658 0 .3247.06585.4419.18306.1173.11721.1831.27618.1831.44194s-.0658.32474-.1831.44195c-.1172.11721-.2761.18305-.4419.18305z"/><path d="m11.5 4.20831h-5c-.16509-.00215-.32281-.06869-.43955-.18544-.11675-.11675-.18329-.27447-.18545-.43956v-1.5c.01056-.42765.18516-.83486.48765-1.13735.30248-.302487.7097-.477083 1.13735-.487647h3c.4348.010873.8481.191256 1.1517.502646.3036.311391.4734.729121.4733 1.164021v1.45833c-.0022.16509-.0687.32281-.1854.43956-.1168.11675-.2745.18329-.4396.18544zm-4.375-1.25h3.75v-.83333c0-.09946-.0395-.19484-.1098-.26516-.0704-.07033-.1657-.10984-.2652-.10984h-3c-.09946 0-.19484.03951-.26517.10984-.07032.07032-.10983.1657-.10983.26516z"/><path d="m11.5 14.2083c-.1651-.0022-.3228-.0687-.4396-.1855-.1167-.1167-.1832-.2744-.1854-.4395v-6.66667c0-.16576.0658-.32474.1831-.44195.1172-.11721.2761-.18305.4419-.18305s.3247.06584.4419.18305c.1173.11721.1831.27619.1831.44195v6.66667c-.0022.1651-.0687.3228-.1854.4395-.1168.1168-.2745.1833-.4396.1855z"/><path d="m6.5 14.2083c-.16509-.0022-.32281-.0687-.43955-.1855-.11675-.1167-.18329-.2744-.18545-.4395v-6.66667c0-.16576.06585-.32474.18306-.44195s.27618-.18305.44194-.18305.32473.06584.44194.18305.18306.27619.18306.44195v6.66667c-.00216.1651-.0687.3228-.18545.4395-.11674.1168-.27446.1833-.43955.1855z"/><path d="m9 14.2083c-.16509-.0022-.32281-.0687-.43955-.1855-.11675-.1167-.18329-.2744-.18545-.4395v-6.66667c0-.16576.06585-.32474.18306-.44195s.27618-.18305.44194-.18305.32473.06584.44194.18305.18306.27619.18306.44195v6.66667c-.00216.1651-.0687.3228-.18545.4395-.11674.1168-.27446.1833-.43955.1855z"/></g></svg>