<svg fill="none" height="27" viewBox="0 0 27 27" width="27" xmlns="http://www.w3.org/2000/svg"><g fill="#ed1c24"><path d="m24.627 1.63477h-20.67192c-1.3085 0-2.37305 1.06454-2.37305 2.37304v1.58203h-.791014c-.436852 0-.791016.35417-.791016.79102v4.74614c0 .4368.354164.791.791016.791h.791014v3.164h-.791014c-.436852 0-.791016.3542-.791016.791v4.7461c0 .4369.354164.7911.791016.7911h.791014v1.582c0 1.3085 1.06455 2.373 2.37305 2.373h20.67192c1.3085 0 2.373-1.0645 2.373-2.373v-18.98439c0-1.3085-1.0645-2.37304-2.373-2.37304zm.791 21.35743c0 .4362-.3549.791-.791.791h-20.67192c-.43617 0-.79102-.3548-.79102-.791v-2.3731c0-.4368-.35416-.791-.79101-.791h-.79102v-3.164h.79102c.43685 0 .79101-.3542.79101-.7911v-4.746c0-.4369-.35416-.7911-.79101-.7911h-.79102v-3.16402h.79102c.43685 0 .79101-.35417.79101-.79102v-2.37305c0-.43616.35485-.79101.79102-.79101h20.67192c.4361 0 .791.35485.791.79101z"/><path d="m22.9922 11.127c-.4369 0-.791.3541-.791.791v3.164c0 .4369.3541.791.791.791.4368 0 .791-.3541.791-.791v-3.164c0-.4369-.3542-.791-.791-.791z"/><path d="m21.1784 6.61252c-.3089-.30892-.8097-.30892-1.1186 0l-3.5894 3.58928c-.6253-.41462-1.3745-.65688-2.1794-.65688s-1.5541.24226-2.1795.65698l-3.58928-3.58933c-.30887-.30892-.80974-.30892-1.11866 0-.30891.30892-.30891.80974 0 1.11865l3.58934 3.58928c-.4147.6254-.657 1.3746-.657 2.1795s.2423 1.5541.657 2.1795l-3.58934 3.5893c-.30891.3089-.30891.8098 0 1.1187.15446.1544.35686.2316.5593.2316.2024 0 .4049-.0772.55931-.2317l3.58933-3.5893c.6254.4147 1.3746.657 2.1795.657s1.5541-.2423 2.1795-.657l3.5893 3.5893c.1544.1545.3569.2317.5593.2317s.4049-.0772.5593-.2317c.3089-.3089.3089-.8097 0-1.1186l-3.5893-3.5893c.4147-.6254.657-1.3746.657-2.1795s-.2423-1.5541-.6569-2.1795l3.5893-3.58928c.3089-.30891.3089-.80978-.0001-1.1187zm-9.2605 6.88748c0-1.3085 1.0646-2.3731 2.3731-2.3731s2.373 1.0646 2.373 2.3731-1.0645 2.373-2.373 2.373-2.3731-1.0645-2.3731-2.373z"/></g></svg>