<?xml version="1.0" encoding="utf-8"?>
<!-- Generator: Adobe Illustrator 17.0.1, SVG Export Plug-In . SVG Version: 6.00 Build 0)  -->
<!DOCTYPE svg PUBLIC "-//W3C//DTD SVG 1.1//EN" "http://www.w3.org/Graphics/SVG/1.1/DTD/svg11.dtd">
<svg version="1.1" id="Layer_1" xmlns="http://www.w3.org/2000/svg" xmlns:xlink="http://www.w3.org/1999/xlink" x="0px" y="0px"
	 width="54px" height="50px" viewBox="0 0 54 50" enable-background="new 0 0 54 50" xml:space="preserve">
<path fill-rule="evenodd" clip-rule="evenodd" d="M26.958,3.047c3.897,0,7.056,3.159,7.056,7.056c0,0.137-0.004,0.272-0.012,0.407
	v0.15c0,9.678,4.797,17.987,13.179,22.826l0.13,0.075c0.12,0.061,0.24,0.125,0.358,0.193c3.375,1.949,4.531,6.264,2.582,9.638
	c-1.948,3.375-6.264,4.531-9.638,2.582l-0.505-0.292c-8.382-4.839-17.976-4.839-26.358,0l-0.505,0.292
	c-3.375,1.948-7.69,0.792-9.638-2.582c-1.949-3.375-0.792-7.69,2.582-9.638c0.118-0.068,0.238-0.132,0.358-0.193l0.176-0.102
	c8.382-4.839,13.179-13.148,13.179-22.826v-0.531C19.902,6.206,23.061,3.047,26.958,3.047z"/>
</svg>
