<svg width="72" height="72" viewBox="0 0 72 72" fill="none" xmlns="http://www.w3.org/2000/svg">
<path fill-rule="evenodd" clip-rule="evenodd" d="M44.4476 20.9221C44.3151 18.5779 44.1827 16.2361 43.3678 14.1402C43.0911 13.3874 42.7021 12.6889 42.2211 12.0649C42.017 11.7986 41.7945 11.544 41.5542 11.3031C40.8731 10.6189 40.0808 10.0778 39.2241 9.69253C38.1843 9.22235 37.085 8.99792 35.998 9.00001C34.9202 9.00008 33.8306 9.2229 32.7992 9.68723C31.9334 10.0749 31.1329 10.6216 30.4463 11.3143C29.7882 11.9765 29.2644 12.7422 28.8863 13.5689C27.8532 15.8057 27.7086 18.3625 27.5639 20.922C27.4304 23.2844 27.2967 25.6492 26.4642 27.767L26.1195 28.6437C24.9787 31.5457 23.411 34.2611 21.4682 36.7L20.8812 37.4369C19.4635 39.2168 17.4823 40.515 15.5032 41.8118C13.3381 43.2305 11.1754 44.6477 9.75521 46.6924C9.63033 46.8722 9.51192 47.0586 9.40049 47.2516C7.23792 50.9973 8.52128 55.7869 12.267 57.9495C13.7909 58.8293 15.4877 59.1388 17.1101 58.944C19.4938 58.6809 21.7228 57.5567 23.9541 56.4313C26.0668 55.3658 28.1816 54.2991 30.4319 53.9613L31.3636 53.8214C34.4471 53.3584 37.5826 53.3584 40.6661 53.8214L41.5978 53.9613C43.8481 54.2991 45.9629 55.3658 48.0756 56.4313C50.2406 57.5233 52.4034 58.6141 54.7076 58.9183C55.715 59.0648 56.7551 59.0163 57.7682 58.7568C61.1599 57.8971 63.6693 54.8242 63.6693 51.1652C63.6693 49.2344 62.9706 47.4668 61.8122 46.1014C60.4068 44.3664 58.4585 43.0897 56.5083 41.8118C54.5292 40.515 52.5481 39.2168 51.1303 37.4369L50.5433 36.7C48.6006 34.2611 47.0329 31.5457 45.8921 28.6438L45.5474 27.767C44.7148 25.6492 44.5811 23.2844 44.4476 20.9221Z" fill="url(#paint0_radial)"/>
<path d="M46.0134 12.6714C46.0695 12.8058 46.123 12.9416 46.1738 13.0787C46.5725 14.1105 46.8345 15.176 47.0134 16.2254C48.7578 15.5192 50.5381 15.0074 52.2945 14.7602C54.3304 14.4737 56.6384 14.5094 58.3632 15.7777C58.712 16.0342 59.0596 16.3269 59.2716 16.7106C59.8672 17.7884 59.8953 19.1892 59.8655 20.3841C59.8289 21.8502 59.6031 23.3093 59.2964 24.7412C58.184 29.9345 55.9879 34.9123 53.4654 39.5623C49.555 46.7709 45.9001 51.6961 40.25 57.6375C48.4936 50.9746 55.1425 45.3463 60.7104 36.2331C63.4534 31.7435 65.7795 26.7146 66.3317 21.4257C66.5836 19.0135 66.4318 16.4641 65.4047 14.2342C63.0388 9.09759 56.9337 8.08313 52.0151 9.63958C49.8767 10.3163 47.8729 11.3672 46.0134 12.6714Z" fill="url(#paint1_linear)"/>
<path d="M16.5251 37.4499C11.4576 34.3875 6.81197 30.0125 4.80809 24.7373C2.97607 19.9145 3.64377 13.7618 8.63843 11.1093C10.8067 9.95777 13.3435 9.66213 15.766 9.7772C21.0776 10.0295 26.2301 12.0676 30.8675 14.5524C40.2809 19.5963 45.2918 24.5378 52.4101 32.3916C46.1587 27.0865 42.0191 25.0944 34.601 21.5977C29.8158 19.3421 24.7218 17.4309 19.4739 16.6139C18.0269 16.3886 16.5575 16.2457 15.0916 16.292C13.8969 16.3298 12.4999 16.437 11.4576 17.0926C11.0864 17.326 10.8139 17.6896 10.5775 18.0524C9.40878 19.8461 9.50358 22.1524 9.90473 24.1689C11.0765 30.0588 12.7126 32.3917 16.5251 37.4499Z" fill="url(#paint2_linear)"/>
<path d="M45.3318 58.4177C44.4259 60.0048 43.1767 61.5015 41.4139 62.103C41.0041 62.2428 40.5654 62.3609 40.1292 62.3158C38.9044 62.1891 37.7385 61.412 36.7748 60.705C35.5923 59.8376 34.5236 58.8188 33.5234 57.7491C29.8961 53.8697 27.0646 49.2239 24.6886 44.4973C21.0052 37.1701 18.3041 29.2996 16.6545 21.2682C17.4149 31.8406 18.983 42.5702 23.283 52.3459C25.4013 57.1617 28.2005 61.9435 32.2264 65.4177C34.0625 67.0022 36.2417 68.3338 38.6588 68.7645C44.1274 69.7388 48.3922 65.4806 49.9938 60.6607C48.8734 60.1946 47.8359 59.6709 46.9055 59.2012L46.9054 59.2011L46.8485 59.1724C46.807 59.1514 46.7657 59.1306 46.7246 59.1098C46.2366 58.8637 45.7743 58.632 45.3318 58.4177Z" fill="url(#paint3_linear)"/>
<defs>
<radialGradient id="paint0_radial" cx="0" cy="0" r="1" gradientUnits="userSpaceOnUse" gradientTransform="translate(50.5 50) rotate(-145.426) scale(44.9361 49.7167)">
<stop stop-color="#0F1B31"/>
<stop offset="1" stop-color="#3B4B62"/>
</radialGradient>
<linearGradient id="paint1_linear" x1="70.5" y1="28" x2="48" y2="13.5" gradientUnits="userSpaceOnUse">
<stop stop-color="#FFC075"/>
<stop offset="0.470595" stop-color="#F9A849"/>
<stop offset="1" stop-color="#F49626" stop-opacity="0"/>
</linearGradient>
<linearGradient id="paint2_linear" x1="22.5" y1="8" x2="7" y2="27.5" gradientUnits="userSpaceOnUse">
<stop stop-color="#FFBF74"/>
<stop offset="0.448476" stop-color="#F9A641"/>
<stop offset="1" stop-color="#F49626" stop-opacity="0"/>
</linearGradient>
<linearGradient id="paint3_linear" x1="28.5" y1="67" x2="47.5" y2="61" gradientUnits="userSpaceOnUse">
<stop stop-color="#FFC37B"/>
<stop offset="0.5049" stop-color="#F9A33D"/>
<stop offset="1" stop-color="#F49626" stop-opacity="0"/>
</linearGradient>
</defs>
</svg>
