<?xml version="1.0" encoding="utf-8"?>
<!-- Generator: Adobe Illustrator 24.0.1, SVG Export Plug-In . SVG Version: 6.00 Build 0)  -->
<svg version="1.1" id="Layer_1" xmlns="http://www.w3.org/2000/svg" xmlns:xlink="http://www.w3.org/1999/xlink" x="0px" y="0px"
	 viewBox="0 0 106.97 16.33" style="enable-background:new 0 0 106.97 16.33;" xml:space="preserve">
<style type="text/css">
	.st0{fill:url(#SVGID_1_);}
	.st1{fill:url(#SVGID_2_);}
	.st2{fill:url(#SVGID_3_);}
	.st3{fill:url(#SVGID_4_);}
	.st4{fill:url(#SVGID_5_);}
	.st5{fill:url(#SVGID_6_);}
	.st6{fill:url(#SVGID_7_);}
	.st7{fill:url(#SVGID_8_);}
	.st8{fill:url(#SVGID_9_);}
</style>
<g id="DreamTeam_xA0_Изображение_1_">
	<g>
		
			<linearGradient id="SVGID_1_" gradientUnits="userSpaceOnUse" x1="-3.505" y1="24.6062" x2="107.1482" y2="24.6062" gradientTransform="matrix(1 0 0 -1 0 32.5512)">
			<stop  offset="0" style="stop-color:#883DD9"/>
			<stop  offset="0.2656" style="stop-color:#7052E2"/>
			<stop  offset="0.8238" style="stop-color:#3387F8"/>
			<stop  offset="1" style="stop-color:#1E99FF"/>
		</linearGradient>
		<path class="st0" d="M0.27,15.73V0.18h0.29c0.3,0,0.98-0.01,2.07-0.03c1.08-0.02,1.82-0.03,2.22-0.03c1.51,0,2.84,0.2,3.98,0.61
			s2.05,0.97,2.73,1.7s1.19,1.54,1.52,2.43c0.33,0.9,0.5,1.88,0.5,2.94c0,2.31-0.77,4.22-2.32,5.72s-3.74,2.25-6.59,2.25
			c-0.27,0-0.88-0.01-1.85-0.02s-1.71-0.02-2.23-0.02H0.27z M4.81,2.66c-0.58,0-1.18,0.02-1.8,0.07v10.44
			c0.5,0.03,1.09,0.04,1.75,0.04c1.85,0,3.3-0.49,4.35-1.47s1.58-2.29,1.58-3.95c0-1.58-0.52-2.84-1.57-3.75S6.64,2.66,4.81,2.66z"
			/>
		
			<linearGradient id="SVGID_2_" gradientUnits="userSpaceOnUse" x1="-3.505" y1="21.9012" x2="107.1482" y2="21.9012" gradientTransform="matrix(1 0 0 -1 0 32.5512)">
			<stop  offset="0" style="stop-color:#883DD9"/>
			<stop  offset="0.2656" style="stop-color:#7052E2"/>
			<stop  offset="0.8238" style="stop-color:#3387F8"/>
			<stop  offset="1" style="stop-color:#1E99FF"/>
		</linearGradient>
		<path class="st1" d="M15.44,15.73v-10H18v0.98c0.56-0.77,1.32-1.15,2.29-1.15c0.7,0,1.21,0.13,1.55,0.38l-0.91,2.4
			c-0.43-0.25-0.86-0.38-1.29-0.38c-0.74,0-1.29,0.36-1.64,1.07v6.71h-2.56V15.73z"/>
		
			<linearGradient id="SVGID_3_" gradientUnits="userSpaceOnUse" x1="-3.505" y1="21.8212" x2="107.1482" y2="21.8212" gradientTransform="matrix(1 0 0 -1 0 32.5512)">
			<stop  offset="0" style="stop-color:#883DD9"/>
			<stop  offset="0.2656" style="stop-color:#7052E2"/>
			<stop  offset="0.8238" style="stop-color:#3387F8"/>
			<stop  offset="1" style="stop-color:#1E99FF"/>
		</linearGradient>
		<path class="st2" d="M30.59,12.93l0.73,1.8c-0.98,0.83-2.25,1.24-3.82,1.24c-1.61,0-2.91-0.48-3.9-1.44s-1.48-2.23-1.48-3.8
			c0-1.5,0.48-2.74,1.44-3.74s2.24-1.5,3.84-1.5c1.32,0,2.44,0.43,3.35,1.3c0.92,0.87,1.38,1.98,1.38,3.34
			c0,0.56-0.05,1.02-0.16,1.38h-7.22c0.1,0.74,0.43,1.31,0.98,1.72s1.22,0.61,2.02,0.61C28.9,13.84,29.84,13.53,30.59,12.93z
			 M27.31,7.62c-1.45,0-2.33,0.73-2.62,2.18h4.91c0.01-0.62-0.19-1.14-0.6-1.55C28.58,7.83,28.02,7.62,27.31,7.62z"/>
		
			<linearGradient id="SVGID_4_" gradientUnits="userSpaceOnUse" x1="-3.505" y1="21.8812" x2="107.1482" y2="21.8812" gradientTransform="matrix(1 0 0 -1 0 32.5512)">
			<stop  offset="0" style="stop-color:#883DD9"/>
			<stop  offset="0.2656" style="stop-color:#7052E2"/>
			<stop  offset="0.8238" style="stop-color:#3387F8"/>
			<stop  offset="1" style="stop-color:#1E99FF"/>
		</linearGradient>
		<path class="st3" d="M34.44,8.31L33.8,6.44c1.08-0.64,2.26-0.96,3.53-0.96c1.42,0,2.44,0.35,3.07,1.04
			c0.62,0.7,0.93,1.73,0.93,3.11v6.09H39.1v-1.15c-0.61,0.86-1.59,1.29-2.95,1.29c-0.93,0-1.69-0.27-2.27-0.82s-0.87-1.3-0.87-2.24
			c0-1.05,0.34-1.85,1.02-2.41c0.68-0.56,1.55-0.83,2.62-0.83c0.92,0,1.67,0.21,2.27,0.64c0.03-0.87-0.1-1.52-0.38-1.94
			c-0.28-0.42-0.78-0.63-1.49-0.63C36.32,7.62,35.44,7.85,34.44,8.31z M36.99,13.7c0.86,0,1.5-0.3,1.93-0.91v-1.02
			c-0.43-0.33-1.01-0.49-1.75-0.49c-0.46,0-0.84,0.11-1.14,0.32s-0.46,0.52-0.46,0.92c0,0.37,0.13,0.66,0.4,0.87
			S36.58,13.7,36.99,13.7z"/>
		
			<linearGradient id="SVGID_5_" gradientUnits="userSpaceOnUse" x1="-3.5049" y1="21.9212" x2="107.1482" y2="21.9212" gradientTransform="matrix(1 0 0 -1 0 32.5512)">
			<stop  offset="0" style="stop-color:#883DD9"/>
			<stop  offset="0.2656" style="stop-color:#7052E2"/>
			<stop  offset="0.8238" style="stop-color:#3387F8"/>
			<stop  offset="1" style="stop-color:#1E99FF"/>
		</linearGradient>
		<path class="st4" d="M58.56,9.2v6.53H56V9.86c0-1.27-0.57-1.91-1.71-1.91c-0.98,0-1.67,0.39-2.07,1.15c0,0.04,0,0.16,0.01,0.34
			c0.01,0.19,0.01,0.31,0.01,0.39v5.89h-2.55V9.68c0-0.53-0.14-0.96-0.43-1.27s-0.7-0.47-1.23-0.47c-0.92,0-1.61,0.36-2.09,1.07
			v6.71h-2.55v-10h2.55v1.11c0.77-0.86,1.81-1.29,3.13-1.29c0.74,0,1.36,0.15,1.87,0.44c0.5,0.3,0.85,0.68,1.04,1.15
			c0.81-1.07,1.94-1.6,3.38-1.6C57.49,5.55,58.56,6.77,58.56,9.2z"/>
		
			<linearGradient id="SVGID_6_" gradientUnits="userSpaceOnUse" x1="-3.505" y1="24.6012" x2="107.1482" y2="24.6012" gradientTransform="matrix(1 0 0 -1 0 32.5512)">
			<stop  offset="0" style="stop-color:#883DD9"/>
			<stop  offset="0.2656" style="stop-color:#7052E2"/>
			<stop  offset="0.8238" style="stop-color:#3387F8"/>
			<stop  offset="1" style="stop-color:#1E99FF"/>
		</linearGradient>
		<path class="st5" d="M59.4,2.73V0.18h12.82v2.55h-5.04v12.99h-2.73V2.73H59.4z"/>
		
			<linearGradient id="SVGID_7_" gradientUnits="userSpaceOnUse" x1="-3.505" y1="21.8212" x2="107.1482" y2="21.8212" gradientTransform="matrix(1 0 0 -1 0 32.5512)">
			<stop  offset="0" style="stop-color:#883DD9"/>
			<stop  offset="0.2656" style="stop-color:#7052E2"/>
			<stop  offset="0.8238" style="stop-color:#3387F8"/>
			<stop  offset="1" style="stop-color:#1E99FF"/>
		</linearGradient>
		<path class="st6" d="M78.21,12.93l0.73,1.8c-0.98,0.83-2.25,1.24-3.82,1.24c-1.61,0-2.91-0.48-3.9-1.44
			c-0.98-0.96-1.48-2.23-1.48-3.8c0-1.5,0.48-2.74,1.44-3.74s2.24-1.5,3.84-1.5c1.32,0,2.44,0.43,3.35,1.3
			c0.92,0.87,1.38,1.98,1.38,3.34c0,0.56-0.05,1.02-0.16,1.38h-7.22c0.1,0.74,0.43,1.31,0.98,1.72s1.22,0.61,2.02,0.61
			C76.52,13.84,77.46,13.53,78.21,12.93z M74.93,7.62c-1.45,0-2.32,0.73-2.62,2.18h4.91c0.01-0.62-0.19-1.14-0.6-1.55
			C76.2,7.83,75.64,7.62,74.93,7.62z"/>
		
			<linearGradient id="SVGID_8_" gradientUnits="userSpaceOnUse" x1="-3.505" y1="21.8812" x2="107.1482" y2="21.8812" gradientTransform="matrix(1 0 0 -1 0 32.5512)">
			<stop  offset="0" style="stop-color:#883DD9"/>
			<stop  offset="0.2656" style="stop-color:#7052E2"/>
			<stop  offset="0.8238" style="stop-color:#3387F8"/>
			<stop  offset="1" style="stop-color:#1E99FF"/>
		</linearGradient>
		<path class="st7" d="M82.06,8.31l-0.64-1.87c1.08-0.64,2.26-0.96,3.53-0.96c1.42,0,2.44,0.35,3.06,1.04
			c0.62,0.7,0.93,1.73,0.93,3.11v6.09h-2.22v-1.15c-0.61,0.86-1.59,1.29-2.95,1.29c-0.93,0-1.69-0.27-2.27-0.82s-0.87-1.3-0.87-2.24
			c0-1.05,0.34-1.85,1.02-2.41c0.68-0.56,1.55-0.83,2.62-0.83c0.92,0,1.67,0.21,2.27,0.64c0.03-0.87-0.1-1.52-0.38-1.94
			c-0.28-0.42-0.78-0.63-1.49-0.63C83.94,7.62,83.06,7.85,82.06,8.31z M84.61,13.7c0.86,0,1.5-0.3,1.93-0.91v-1.02
			c-0.43-0.33-1.01-0.49-1.75-0.49c-0.46,0-0.84,0.11-1.14,0.32s-0.46,0.52-0.46,0.92c0,0.37,0.13,0.66,0.4,0.87
			S84.2,13.7,84.61,13.7z"/>
		
			<linearGradient id="SVGID_9_" gradientUnits="userSpaceOnUse" x1="-3.505" y1="21.9212" x2="107.1482" y2="21.9212" gradientTransform="matrix(1 0 0 -1 0 32.5512)">
			<stop  offset="0" style="stop-color:#883DD9"/>
			<stop  offset="0.2656" style="stop-color:#7052E2"/>
			<stop  offset="0.8238" style="stop-color:#3387F8"/>
			<stop  offset="1" style="stop-color:#1E99FF"/>
		</linearGradient>
		<path class="st8" d="M106.18,9.2v6.53h-2.55V9.86c0-1.27-0.57-1.91-1.71-1.91c-0.98,0-1.67,0.39-2.07,1.15
			c0,0.04,0,0.16,0.01,0.34c0.01,0.19,0.01,0.31,0.01,0.39v5.89h-2.55V9.68c0-0.53-0.14-0.96-0.43-1.27s-0.7-0.47-1.23-0.47
			c-0.92,0-1.61,0.36-2.09,1.07v6.71h-2.55v-10h2.55v1.11c0.77-0.86,1.81-1.29,3.13-1.29c0.74,0,1.36,0.15,1.87,0.44
			c0.5,0.3,0.85,0.68,1.04,1.15c0.81-1.07,1.94-1.6,3.38-1.6C105.11,5.55,106.18,6.77,106.18,9.2z"/>
	</g>
</g>
</svg>
