<?xml version="1.0" encoding="UTF-8" standalone="no"?>
<svg width="320px" height="320px" viewBox="0 0 320 320" version="1.1" xmlns="http://www.w3.org/2000/svg" xmlns:xlink="http://www.w3.org/1999/xlink">
    <!-- Generator: Sketch 50.2 (55047) - http://www.bohemiancoding.com/sketch -->
    <title>TA_logo_White_1</title>
    <desc>Created with Sketch.</desc>
    <defs></defs>
    <g id="TA_logo_White_1" stroke="none" stroke-width="1" fill="none" fill-rule="evenodd">
        <g id="TA_B" fill="#1F2937">
            <path d="M225.691057,106.666667 L93.6585366,106.666667 L93.6585366,128.078049 L151.310569,128.078049 L100.214634,216.533333 L118.764228,227.252033 L172.669919,133.879675 L162.57561,128.052033 L225.691057,128.052033 L225.691057,106.666667 Z M186.43252,152.481301 L223.401626,216.507317 L204.852033,227.226016 L167.882927,163.2 L186.43252,152.481301 Z" id="Shape-Copy-16"></path>
            <path d="M160.027454,0.000150161852 C236.350505,0.0163801995 302.034875,53.9414855 316.91435,128.800083 C331.793825,203.65868 291.724771,278.604156 221.209549,307.807099 C150.694328,337.010043 69.3700096,312.338022 26.9666886,248.87806 C-15.4366324,185.418098 -7.11048387,100.842519 46.8536663,46.8695728 C76.8389676,16.8098252 117.5692,-0.0580601742 160.027454,0.000150161852 Z M260.244614,59.7999731 C212.43341,11.9615408 137.486578,4.56076398 81.2422119,42.1240184 C24.997846,79.6872727 3.12241343,151.751582 28.9951076,214.241825 C54.8678018,276.732068 121.281968,312.242033 187.61816,299.053536 C253.954352,285.865039 301.735095,227.651641 301.737298,160.017133 C301.793455,122.420917 286.860439,86.3532479 260.244614,59.7999731 Z" id="Shape-Copy-17"></path>
        </g>
    </g>
</svg>