<svg width="18" height="20" viewBox="0 0 18 20" fill="none" xmlns="http://www.w3.org/2000/svg">
<path fill-rule="evenodd" clip-rule="evenodd" d="M7.5 0.875C6.3264 0.875 5.375 1.82639 5.375 3V5H6.625V3C6.625 2.51675 7.01675 2.125 7.5 2.125H13.5C13.9832 2.125 14.375 2.51675 14.375 3V8.64571C14.8094 8.73926 15.2276 8.87623 15.625 9.05184V3C15.625 1.82639 14.6736 0.875 13.5 0.875H7.5ZM10.625 8V8.94756C10.1826 9.12129 9.76389 9.34213 9.375 9.60389V8C9.375 7.51675 8.98325 7.125 8.5 7.125H2.5C2.01675 7.125 1.625 7.51675 1.625 8V17C1.625 17.4832 2.01675 17.875 2.5 17.875H7.16877C7.39024 18.3233 7.66188 18.7424 7.97637 19.125H2.5C1.3264 19.125 0.375 18.1736 0.375 17V8C0.375 6.8264 1.3264 5.875 2.5 5.875H8.5C9.6736 5.875 10.625 6.8264 10.625 8ZM18 15C18 17.7614 15.7614 20 13 20C10.2386 20 8 17.7614 8 15C8 12.2386 10.2386 10 13 10C15.7614 10 18 12.2386 18 15ZM15.6036 13.2465C15.7988 13.4418 15.7988 13.7584 15.6036 13.9537L12.6036 16.9537C12.4083 17.1489 12.0917 17.1489 11.8964 16.9537L10.3964 15.4537C10.2012 15.2584 10.2012 14.9418 10.3964 14.7465C10.5917 14.5513 10.9083 14.5513 11.1036 14.7465L12.25 15.893L14.8964 13.2465C15.0917 13.0513 15.4083 13.0513 15.6036 13.2465Z" fill="white"/>
</svg>
